# xmcd
#
# Track frame offsets: 
#        182
#        19130
#        41517
#        58435
#        75097
#        96590
#        116327
#        134200
#        155915
#        170387
#        199282
#        224612
#        230620
#        238685
#        245925
#
# Disc length: 3385 seconds
#
# Revision: 3
# Processed by: cddbd v1.5PL3 Copyright (c) Steve Scherf et al.
# Submitted via: ExactAudioCopy v0.95a1
#
DISCID=e50d370f
DTITLE=Lead Belly - Gwine Dig A Hole To Put The Devil In
DYEAR=1991
DGENRE=Blues
TTITLE0=C.C. Rider
TTITLE1=Governor Pat Neff
TTITLE2=Becky Dean
TTITLE3=Medicine Man
TTITLE4=Alberta
TTITLE5=Old Rattler
TTITLE6=If It Wasn't For Dicky
TTITLE7=Queen Mary
TTITLE8=Turn Yo' Radio On
TTITLE9=Mama, Did You Bring Me Any Silver?
TTITLE10=The Bourgeois Blues
TTITLE11=Po' Howard
TTITLE12=Dance Calls [incudes "One Dollar Bill, Baby"]
TTITLE13=Gwine Dig A Hole To Put The Devil In
TTITLE14=Green Corn
EXTD=
EXTT0=
EXTT1=
EXTT2=
EXTT3=
EXTT4=
EXTT5=
EXTT6=
EXTT7=
EXTT8=
EXTT9=
EXTT10=
EXTT11=
EXTT12=
EXTT13=
EXTT14=
PLAYORDER=
